<svg data-v-fde0c5aa="" xmlns="http://www.w3.org/2000/svg" viewBox="0 0 300 300" class="icon"><!----><defs data-v-fde0c5aa=""><!----></defs><rect data-v-fde0c5aa="" fill="#E1F3FC" x="0" y="0" width="300px" height="300px" class="logo-background-square"></rect><!----><defs data-v-fde0c5aa=""><linearGradient data-v-fde0c5aa="" gradientTransform="rotate(25)" id="5d9b6a79-414c-4d50-b707-a39e61fdad28" x1="0%" y1="0%" x2="100%" y2="0%"><stop data-v-fde0c5aa="" offset="0%" stop-color="#0076DD" stop-opacity="1"></stop><stop data-v-fde0c5aa="" offset="100%" stop-color="#00CDE9" stop-opacity="1"></stop></linearGradient></defs><g data-v-fde0c5aa="" id="a5288068-47e5-4e79-85a0-d4644707903f" fill="url(#5d9b6a79-414c-4d50-b707-a39e61fdad28)" stroke="none" transform="matrix(1.7460317611694336,0,0,1.7460317611694336,38.25396825396825,38.25396825396826)"><path d="M49.617 33.842l.121-.01a3.86 3.86 0 0 1 .217-.005c4.117 0 13.242 5.675 16.003 16.522 1.787 7.021 2.017 16.478-.803 21.784 2.441 3.748 9.384 8.017 16.434 10.001 1.925.542 3.895.816 5.855.816 7.014 0 11.809-3.431 12.617-4.858.22-.53 1.787-4.417 2.526-9.117 1.015-6.469 1.243-12.794.677-18.797-2.604-27.609-21.64-43.914-39.097-45.751a28.998 28.998 0 0 0-3.009-.157c-15.242 0-31.844 12.18-35.836 39.277 4.35-2.76 9.128-5.148 14.25-7.123 5.171-1.992 9.848-2.559 10.045-2.582z"></path><path d="M36.846 103.018l-.069-.1c-2.174-3.401-1.958-14.356 6.195-22.306 5.084-4.957 13.254-9.976 19.268-10.196 2.025-3.988 2.25-12.135.444-19.233-2.487-9.771-10.518-13.977-12.728-13.977h-.012c-.578.076-4.723.663-9.155 2.371-6.11 2.354-11.702 5.32-16.618 8.813C1.563 64.45-3.041 89.087 4.097 105.124c5.107 11.477 17.216 18.606 31.602 18.606 6.851 0 14.136-1.521 21.701-4.525-4.565-2.388-9.024-5.331-13.295-8.78-4.312-3.482-7.141-7.248-7.259-7.407z"></path><path d="M126.568 83.611c-1.237-7.708-5.703-18.969-19.686-30.018.215 5.148-.105 10.482-.957 15.906-.86 5.475-2.708 9.808-2.785 9.989l-.053.11c-1.463 2.821-7.714 6.729-15.644 6.73-2.27 0-4.548-.316-6.771-.942-6.972-1.961-15.276-6.49-18.464-11.586-4.503.243-11.646 4.13-16.878 9.232-7.253 7.072-6.86 16.116-5.736 18.018.348.454 2.931 3.756 6.633 6.746 5.095 4.115 10.458 7.475 15.94 9.985 7.958 3.645 16.07 5.493 24.111 5.493 14.455.001 27.563-6.159 35.061-16.477 4.727-6.504 6.585-14.738 5.229-23.186z"></path></g><!----></svg>